{
  "accessors": [
    {
      "bufferView": 0,
      "componentType": 5125,
      "count": 51162,
      "type": "SCALAR"
    },
    {
      "bufferView": 1,
      "componentType": 5126,
      "count": 9934,
      "max": [
        0.15098491892654697,
        0.03978248120295447,
        0.016451307574819957
      ],
      "min": [
        -0.15098491892654697,
        -0.03978248120295447,
        -0.016451307574819957
      ],
      "type": "VEC3"
    },
    {
      "bufferView": 2,
      "componentType": 5126,
      "count": 9934,
      "max": [
        0.9999999865392296,
        0.999997839156017,
        1.0
      ],
      "min": [
        -0.9999997480912328,
        -0.9999999996908366,
        -1.0
      ],
      "type": "VEC3"
    },
    {
      "bufferView": 3,
      "componentType": 5126,
      "count": 9934,
      "max": [
        1.0,
        0.7810733676059463
      ],
      "min": [
        0.0,
        0.0
      ],
      "type": "VEC2"
    }
  ],
  "asset": {
    "generator": "Adobe Illustrator",
    "version": "2.0"
  },
  "bufferViews": [
    {
      "buffer": 0,
      "byteLength": 204648,
      "target": 34963
    },
    {
      "buffer": 0,
      "byteLength": 119208,
      "byteOffset": 204648,
      "target": 34962
    },
    {
      "buffer": 0,
      "byteLength": 119208,
      "byteOffset": 323856,
      "target": 34962
    },
    {
      "buffer": 0,
      "byteLength": 79472,
      "byteOffset": 443064,
      "target": 34962
    }
  ],
  "buffers": [
    {
      "byteLength": 522536,
      "uri": "data:application/octet-stream;base64,"
    }
  ],
  "materials": [
    {
      "doubleSided": true,
      "pbrMetallicRoughness": {
        "baseColorFactor": [
          0.9296875,
          0.2578125,
          0.58984375,
          1.0
        ],
        "roughnessFactor": 0.611277163028717
      }
    }
  ],
  "meshes": [
    {
      "primitives": [
        {
          "attributes": {
            "NORMAL": 2,
            "POSITION": 1,
            "TEXCOORD_0": 3
          },
          "indices": 0,
          "material": 0,
          "mode": 4
        }
      ]
    }
  ],
  "nodes": [
    {
      "mesh": 0
    }
  ],
  "scenes": [
    {
      "nodes": [
        0
      ]
    }
  ]
}
