{
  "accessors": [
    {
      "bufferView": 0,
      "componentType": 5125,
      "count": 61608,
      "type": "SCALAR"
    },
    {
      "bufferView": 1,
      "componentType": 5126,
      "count": 13976,
      "max": [
        0.0037133789162293596,
        0.23273910555701813,
        0.0036700514358189626
      ],
      "min": [
        -0.0037133789162295816,
        -0.2327391055570181,
        -0.003670051435818963
      ],
      "type": "VEC3"
    },
    {
      "bufferView": 2,
      "componentType": 5126,
      "count": 13976,
      "max": [
        1.0,
        1.0,
        0.9896908406612214
      ],
      "min": [
        -1.0,
        -1.0,
        -0.9896908406612214
      ],
      "type": "VEC3"
    },
    {
      "bufferView": 3,
      "componentType": 5126,
      "count": 13976,
      "max": [
        0.9946930131409321,
        1.0
      ],
      "min": [
        0.0,
        0.0
      ],
      "type": "VEC2"
    }
  ],
  "asset": {
    "generator": "Adobe Illustrator",
    "version": "2.0"
  },
  "bufferViews": [
    {
      "buffer": 0,
      "byteLength": 246432,
      "target": 34963
    },
    {
      "buffer": 0,
      "byteLength": 167712,
      "byteOffset": 246432,
      "target": 34962
    },
    {
      "buffer": 0,
      "byteLength": 167712,
      "byteOffset": 414144,
      "target": 34962
    },
    {
      "buffer": 0,
      "byteLength": 111808,
      "byteOffset": 581856,
      "target": 34962
    }
  ],
  "buffers": [
    {
      "byteLength": 693664,
      "uri": "data:application/octet-stream;base64,"
    }
  ],
  "materials": [
    {
      "doubleSided": true,
      "pbrMetallicRoughness": {
        "baseColorFactor": [
          0.65234375,
          0.66015625,
          0.671875,
          1.0
        ],
        "roughnessFactor": 0.4000000059604645
      }
    }
  ],
  "meshes": [
    {
      "primitives": [
        {
          "attributes": {
            "NORMAL": 2,
            "POSITION": 1,
            "TEXCOORD_0": 3
          },
          "indices": 0,
          "material": 0,
          "mode": 4
        }
      ]
    }
  ],
  "nodes": [
    {
      "mesh": 0
    }
  ],
  "scenes": [
    {
      "nodes": [
        0
      ]
    }
  ]
}
