{
  "accessors": [
    {
      "bufferView": 0,
      "componentType": 5125,
      "count": 45720,
      "type": "SCALAR"
    },
    {
      "bufferView": 1,
      "componentType": 5126,
      "count": 10188,
      "max": [
        0.003713378812658763,
        0.04454256477198714,
        0.003750275507387156
      ],
      "min": [
        -0.003713378812658763,
        -0.04454256477198714,
        -0.003750275507387156
      ],
      "type": "VEC3"
    },
    {
      "bufferView": 2,
      "componentType": 5126,
      "count": 10188,
      "max": [
        1.0,
        1.0,
        0.9990980544111352
      ],
      "min": [
        -1.0,
        -1.0,
        -0.9990980544111352
      ],
      "type": "VEC3"
    },
    {
      "bufferView": 3,
      "componentType": 5126,
      "count": 10188,
      "max": [
        0.9923583833060998,
        1.0
      ],
      "min": [
        0.0,
        0.0
      ],
      "type": "VEC2"
    }
  ],
  "asset": {
    "generator": "Adobe Illustrator",
    "version": "2.0"
  },
  "bufferViews": [
    {
      "buffer": 0,
      "byteLength": 182880,
      "target": 34963
    },
    {
      "buffer": 0,
      "byteLength": 122256,
      "byteOffset": 182880,
      "target": 34962
    },
    {
      "buffer": 0,
      "byteLength": 122256,
      "byteOffset": 305136,
      "target": 34962
    },
    {
      "buffer": 0,
      "byteLength": 81504,
      "byteOffset": 427392,
      "target": 34962
    }
  ],
  "buffers": [
    {
      "byteLength": 508896,
      "uri": "data:application/octet-stream;base64,"
    }
  ],
  "materials": [
    {
      "doubleSided": true,
      "pbrMetallicRoughness": {
        "baseColorFactor": [
          0.65234375,
          0.66015625,
          0.671875,
          1.0
        ],
        "roughnessFactor": 0.610495924949646
      }
    }
  ],
  "meshes": [
    {
      "primitives": [
        {
          "attributes": {
            "NORMAL": 2,
            "POSITION": 1,
            "TEXCOORD_0": 3
          },
          "indices": 0,
          "material": 0,
          "mode": 4
        }
      ]
    }
  ],
  "nodes": [
    {
      "mesh": 0
    }
  ],
  "scenes": [
    {
      "nodes": [
        0
      ]
    }
  ]
}
