{
  "accessors": [
    {
      "bufferView": 0,
      "componentType": 5125,
      "count": 41964,
      "type": "SCALAR"
    },
    {
      "bufferView": 1,
      "componentType": 5126,
      "count": 7816,
      "max": [
        2.3288056063163554,
        1.8630444607617487,
        0.15190409774088537
      ],
      "min": [
        -2.328805606316355,
        -1.8630444607617485,
        -0.15190409774088537
      ],
      "type": "VEC3"
    },
    {
      "bufferView": 2,
      "componentType": 5126,
      "count": 7816,
      "max": [
        1.0,
        1.0,
        1.0
      ],
      "min": [
        -1.0,
        -1.0,
        -1.0
      ],
      "type": "VEC3"
    },
    {
      "bufferView": 3,
      "componentType": 5126,
      "count": 7816,
      "max": [
        0.6009869964081878,
        1.0
      ],
      "min": [
        0.0,
        0.0
      ],
      "type": "VEC2"
    }
  ],
  "asset": {
    "generator": "Adobe Illustrator",
    "version": "2.0"
  },
  "bufferViews": [
    {
      "buffer": 0,
      "byteLength": 167856,
      "target": 34963
    },
    {
      "buffer": 0,
      "byteLength": 93792,
      "byteOffset": 167856,
      "target": 34962
    },
    {
      "buffer": 0,
      "byteLength": 93792,
      "byteOffset": 261648,
      "target": 34962
    },
    {
      "buffer": 0,
      "byteLength": 62528,
      "byteOffset": 355440,
      "target": 34962
    }
  ],
  "buffers": [
    {
      "byteLength": 417968,
      "uri": "data:application/octet-stream;base64,"
    }
  ],
  "materials": [
    {
      "doubleSided": true,
      "pbrMetallicRoughness": {
        "baseColorFactor": [
          0.9999999403953552,
          0.9999999403953552,
          0.9999999403953552,
          1.0
        ],
        "metallicFactor": 0.0,
        "roughnessFactor": 0.4000000059604645
      }
    }
  ],
  "meshes": [
    {
      "primitives": [
        {
          "attributes": {
            "NORMAL": 2,
            "POSITION": 1,
            "TEXCOORD_0": 3
          },
          "indices": 0,
          "material": 0,
          "mode": 4
        }
      ]
    }
  ],
  "nodes": [
    {
      "mesh": 0
    }
  ],
  "scenes": [
    {
      "nodes": [
        0
      ]
    }
  ]
}
